<svg width="366" height="110" viewBox="0 0 366 110" fill="none" xmlns="http://www.w3.org/2000/svg">
<path d="M352.5 109.1H13.3C6.3 109.1 0.5 103.3 0.5 96.3V13.7C0.5 6.7 6.2 0.899994 13.3 0.899994H352.5C359.5 0.899994 365.5 6.6 365.5 13.7V96.3C365.5 103.3 359.6 109.1 352.5 109.1Z" fill="#A6A6A6"/>
<path d="M362.9 96.3C362.9 102 358.3 106.7 352.5 106.7H13.3C7.6 106.7 2.89999 102.1 2.89999 96.3V13.7C2.89999 8 7.6 3.3 13.3 3.3H352.5C358.2 3.3 362.9 8 362.9 13.7V96.3Z" fill="black"/>
<path d="M82 54.4C81.9 45.7 89.1 41.4 89.5 41.2C85.4 35.2 79.1 34.4 76.9 34.4C71.6 33.8 66.4 37.6 63.7 37.6C60.9 37.6 56.8 34.5 52.3 34.6C46.5 34.7 41.1 38 38.1 43.2C32 53.8 36.5 69.4 42.4 78C45.3 82.2 48.8 86.9 53.3 86.7C57.7 86.5 59.3 83.9 64.6 83.9C69.9 83.9 71.4 86.7 76 86.6C80.7 86.5 83.7 82.4 86.5 78.1C89.9 73.3 91.3 68.5 91.3 68.3C91.1 68.3 82 64.9 82 54.4Z" fill="white"/>
<path d="M73.3 28.8C75.7 25.8 77.3 21.8 76.8 17.7C73.4 17.9 69.1 20.1 66.6 23C64.4 25.5 62.5 29.7 63 33.6C66.9 33.9 70.8 31.7 73.3 28.8Z" fill="white"/>
<path d="M145.5 86.1H139.4L136 75.5H124.3L121.1 86.1H115.1L126.7 50.1H133.9L145.5 86.1ZM135 71.1L132 61.7C131.7 60.7 131.1 58.5 130.2 54.9H130.1C129.7 56.4 129.2 58.7 128.4 61.7L125.4 71.1H135Z" fill="white"/>
<path d="M175.3 72.8C175.3 77.2 174.1 80.7 171.7 83.3C169.6 85.6 166.9 86.7 163.7 86.7C160.3 86.7 157.8 85.5 156.3 83H156.2V96.7H150.4V68.7C150.4 65.9 150.3 63.1 150.2 60.2H155.3L155.6 64.3H155.7C157.6 61.2 160.5 59.7 164.5 59.7C167.6 59.7 170.1 60.9 172.2 63.3C174.3 65.7 175.3 68.9 175.3 72.8ZM169.5 73C169.5 70.5 168.9 68.4 167.8 66.8C166.6 65.1 164.9 64.2 162.8 64.2C161.4 64.2 160.1 64.7 158.9 65.6C157.7 66.5 157 67.8 156.6 69.3C156.4 70 156.3 70.6 156.3 71.1V75.4C156.3 77.3 156.9 78.9 158 80.2C159.2 81.5 160.7 82.1 162.5 82.1C164.7 82.1 166.4 81.3 167.6 79.6C168.8 78 169.5 75.8 169.5 73Z" fill="white"/>
<path d="M205.2 72.8C205.2 77.2 204 80.7 201.6 83.3C199.5 85.6 196.8 86.7 193.6 86.7C190.2 86.7 187.7 85.5 186.2 83H186.1V96.7H180.3V68.7C180.3 65.9 180.2 63.1 180.1 60.2H185.2L185.5 64.3H185.6C187.5 61.2 190.4 59.7 194.4 59.7C197.5 59.7 200 60.9 202.1 63.3C204.1 65.7 205.2 68.9 205.2 72.8ZM199.3 73C199.3 70.5 198.7 68.4 197.6 66.8C196.4 65.1 194.7 64.2 192.6 64.2C191.2 64.2 189.9 64.7 188.7 65.6C187.5 66.5 186.8 67.8 186.4 69.3C186.2 70 186.1 70.6 186.1 71.1V75.4C186.1 77.3 186.7 78.9 187.8 80.2C189 81.5 190.5 82.1 192.3 82.1C194.5 82.1 196.2 81.3 197.4 79.6C198.7 78 199.3 75.8 199.3 73Z" fill="white"/>
<path d="M238.5 76C238.5 79.1 237.4 81.6 235.3 83.5C233 85.6 229.7 86.6 225.5 86.6C221.6 86.6 218.5 85.9 216.2 84.4L217.5 79.6C220 81.1 222.8 81.9 225.8 81.9C228 81.9 229.7 81.4 230.9 80.4C232.1 79.4 232.7 78.1 232.7 76.5C232.7 75 232.2 73.8 231.2 72.8C230.2 71.8 228.6 70.9 226.2 70C219.9 67.7 216.8 64.2 216.8 59.7C216.8 56.7 217.9 54.3 220.1 52.4C222.3 50.5 225.2 49.6 228.9 49.6C232.2 49.6 234.9 50.2 237.1 51.3L235.7 56C233.7 54.9 231.4 54.3 228.8 54.3C226.8 54.3 225.2 54.8 224.1 55.8C223.1 56.7 222.7 57.8 222.7 59.1C222.7 60.5 223.2 61.7 224.4 62.6C225.4 63.5 227.1 64.4 229.6 65.4C232.7 66.6 235 68.1 236.4 69.8C237.8 71.4 238.5 73.5 238.5 76Z" fill="white"/>
<path d="M257.6 64.5H251.2V77.1C251.2 80.3 252.3 81.9 254.6 81.9C255.6 81.9 256.5 81.8 257.2 81.6L257.4 86C256.3 86.4 254.8 86.6 252.9 86.6C250.6 86.6 248.8 85.9 247.6 84.5C246.3 83.1 245.7 80.8 245.7 77.5V64.4H241.9V60.1H245.7V55.3L251.4 53.6V60.1H257.8V64.5H257.6Z" fill="white"/>
<path d="M286.3 72.9C286.3 76.9 285.2 80.2 282.9 82.7C280.5 85.3 277.3 86.7 273.4 86.7C269.6 86.7 266.6 85.4 264.3 82.9C262 80.4 260.9 77.2 260.9 73.3C260.9 69.3 262.1 66 264.4 63.4C266.7 60.8 269.9 59.6 273.8 59.6C277.6 59.6 280.7 60.9 283 63.4C285.2 65.9 286.3 69 286.3 72.9ZM280.3 73.1C280.3 70.7 279.8 68.7 278.8 66.9C277.6 64.8 275.9 63.8 273.6 63.8C271.3 63.8 269.5 64.8 268.3 66.9C267.3 68.6 266.8 70.7 266.8 73.2C266.8 75.6 267.3 77.6 268.3 79.4C269.5 81.5 271.3 82.5 273.5 82.5C275.7 82.5 277.4 81.4 278.7 79.3C279.7 77.6 280.3 75.5 280.3 73.1Z" fill="white"/>
<path d="M305 65.2C304.4 65.1 303.8 65 303.2 65C301.2 65 299.6 65.8 298.5 67.3C297.5 68.7 297.1 70.4 297.1 72.4V86H291.3L291.4 68.2C291.4 65.2 291.3 62.5 291.2 60H296.2L296.4 65H296.6C297.2 63.3 298.2 61.9 299.5 60.9C300.8 60 302.2 59.5 303.7 59.5C304.2 59.5 304.7 59.5 305.1 59.6V65.2H305Z" fill="white"/>
<path d="M330.8 71.9C330.8 72.9 330.7 73.8 330.6 74.5H313.3C313.4 77.1 314.2 79 315.8 80.4C317.3 81.6 319.1 82.2 321.5 82.2C324.1 82.2 326.4 81.8 328.5 81L329.4 85C326.9 86.1 324 86.6 320.7 86.6C316.7 86.6 313.5 85.4 311.2 83.1C308.9 80.7 307.8 77.6 307.8 73.6C307.8 69.7 308.9 66.4 311 63.8C313.2 61 316.3 59.6 320.1 59.6C323.8 59.6 326.7 61 328.6 63.8C330 65.9 330.8 68.7 330.8 71.9ZM325.3 70.4C325.3 68.7 325 67.2 324.2 66C323.2 64.4 321.7 63.6 319.6 63.6C317.7 63.6 316.2 64.4 315 65.9C314 67.1 313.5 68.6 313.3 70.4H325.3Z" fill="white"/>
<path d="M133.1 28C133.1 31.2 132.1 33.6 130.2 35.2C128.4 36.7 125.9 37.4 122.7 37.4C121.1 37.4 119.7 37.3 118.6 37.2V19.8C120.1 19.6 121.7 19.4 123.5 19.4C126.6 19.4 128.9 20.1 130.5 21.4C132.2 23 133.1 25.2 133.1 28ZM130.1 28.1C130.1 26 129.6 24.5 128.5 23.4C127.4 22.3 125.8 21.7 123.7 21.7C122.8 21.7 122 21.8 121.4 21.9V35.1C121.7 35.2 122.4 35.2 123.3 35.2C125.5 35.2 127.1 34.6 128.3 33.4C129.5 32.1 130.1 30.4 130.1 28.1Z" fill="white"/>
<path d="M149 30.8C149 32.8 148.4 34.4 147.3 35.6C146.1 36.9 144.6 37.5 142.6 37.5C140.7 37.5 139.2 36.9 138.1 35.6C137 34.4 136.4 32.8 136.4 30.9C136.4 28.9 137 27.3 138.1 26C139.2 24.7 140.8 24.1 142.7 24.1C144.6 24.1 146.1 24.7 147.2 26C148.4 27.3 149 28.9 149 30.8ZM146 30.9C146 29.7 145.7 28.7 145.2 27.9C144.6 26.9 143.8 26.4 142.7 26.4C141.6 26.4 140.7 26.9 140.1 27.9C139.6 28.7 139.3 29.8 139.3 31C139.3 32.2 139.6 33.2 140.1 34C140.7 35 141.6 35.5 142.7 35.5C143.8 35.5 144.6 35 145.2 33.9C145.8 33.1 146 32 146 30.9Z" fill="white"/>
<path d="M170.2 24.5L166.2 37.2H163.6L161.9 31.7C161.5 30.3 161.1 28.9 160.9 27.6H160.8C160.6 29 160.2 30.4 159.8 31.7L158 37.2H155.4L151.6 24.5H154.5L155.9 30.6C156.2 32 156.5 33.4 156.8 34.7H156.9C157.1 33.6 157.5 32.3 158 30.6L159.8 24.5H162.1L163.8 30.5C164.2 32 164.6 33.3 164.8 34.7H164.9C165.1 33.4 165.4 32 165.8 30.5L167.3 24.5H170.2Z" fill="white"/>
<path d="M184.9 37.2H182.1V29.9C182.1 27.7 181.2 26.5 179.5 26.5C178.7 26.5 178 26.8 177.5 27.4C177 28 176.7 28.7 176.7 29.6V37.2H173.9V28.1C173.9 27 173.9 25.8 173.8 24.5H176.3L176.4 26.5H176.5C176.8 25.9 177.3 25.4 178 25C178.8 24.5 179.6 24.3 180.6 24.3C181.8 24.3 182.8 24.7 183.6 25.5C184.6 26.4 185.1 27.9 185.1 29.7V37.2H184.9Z" fill="white"/>
<path d="M192.7 18.7H189.9V37.3H192.7V18.7Z" fill="white"/>
<path d="M209.4 30.8C209.4 32.8 208.8 34.4 207.7 35.6C206.5 36.9 205 37.5 203 37.5C201.1 37.5 199.6 36.9 198.5 35.6C197.4 34.4 196.8 32.8 196.8 30.9C196.8 28.9 197.4 27.3 198.5 26C199.6 24.7 201.2 24.1 203.1 24.1C205 24.1 206.5 24.7 207.6 26C208.8 27.3 209.4 28.9 209.4 30.8ZM206.4 30.9C206.4 29.7 206.1 28.7 205.6 27.9C205 26.9 204.2 26.4 203.1 26.4C202 26.4 201.1 26.9 200.5 27.9C200 28.7 199.7 29.8 199.7 31C199.7 32.2 200 33.2 200.5 34C201.1 35 202 35.5 203.1 35.5C204.2 35.5 205 35 205.6 33.9C206.2 33.1 206.4 32 206.4 30.9Z" fill="white"/>
<path d="M223.1 37.2H220.6L220.4 35.7H220.3C219.4 36.9 218.2 37.5 216.6 37.5C215.4 37.5 214.4 37.1 213.7 36.3C213 35.6 212.7 34.7 212.7 33.7C212.7 32.1 213.3 31 214.7 30.1C216 29.3 217.8 28.9 220.2 28.9V28.7C220.2 27 219.3 26.2 217.6 26.2C216.3 26.2 215.2 26.5 214.3 27.1L213.7 25.2C214.9 24.5 216.3 24.1 218.1 24.1C221.4 24.1 223.1 25.9 223.1 29.4V34.1C222.9 35.5 223 36.5 223.1 37.2ZM220.2 32.9V30.9C217.1 30.8 215.5 31.7 215.5 33.5C215.5 34.2 215.7 34.7 216 35C216.4 35.3 216.8 35.5 217.4 35.5C218 35.5 218.6 35.3 219.1 34.9C219.6 34.5 220 34 220.1 33.4L220.2 32.9Z" fill="white"/>
<path d="M239.2 37.2H236.7L236.6 35.2H236.5C235.7 36.8 234.3 37.5 232.4 37.5C230.9 37.5 229.6 36.9 228.6 35.7C227.6 34.5 227.1 32.9 227.1 31C227.1 28.9 227.6 27.3 228.8 26C229.9 24.8 231.2 24.2 232.7 24.2C234.4 24.2 235.6 24.8 236.3 25.9H236.4V18.6H239.2V33.8C239.1 35.1 239.1 36.2 239.2 37.2ZM236.3 31.9V29.8C236.3 29.4 236.3 29.1 236.2 28.9C236 28.2 235.7 27.6 235.2 27.2C234.7 26.7 234 26.5 233.3 26.5C232.2 26.5 231.4 26.9 230.8 27.8C230.2 28.6 229.9 29.7 229.9 31C229.9 32.3 230.2 33.3 230.8 34.1C231.4 34.9 232.2 35.4 233.3 35.4C234.2 35.4 235 35.1 235.5 34.4C236 33.6 236.3 32.8 236.3 31.9Z" fill="white"/>
<path d="M263.4 30.8C263.4 32.8 262.8 34.4 261.7 35.6C260.5 36.9 259 37.5 257 37.5C255.1 37.5 253.6 36.9 252.5 35.6C251.4 34.4 250.8 32.8 250.8 30.9C250.8 28.9 251.4 27.3 252.5 26C253.6 24.7 255.2 24.1 257.1 24.1C259 24.1 260.5 24.7 261.6 26C262.9 27.3 263.4 28.9 263.4 30.8ZM260.5 30.9C260.5 29.7 260.2 28.7 259.7 27.9C259.1 26.9 258.3 26.4 257.2 26.4C256.1 26.4 255.2 26.9 254.6 27.9C254.1 28.7 253.8 29.8 253.8 31C253.8 32.2 254.1 33.2 254.6 34C255.2 35 256.1 35.5 257.2 35.5C258.3 35.5 259.1 35 259.7 33.9C260.2 33.1 260.5 32 260.5 30.9Z" fill="white"/>
<path d="M278.7 37.2H275.9V29.9C275.9 27.7 275 26.5 273.3 26.5C272.5 26.5 271.8 26.8 271.3 27.4C270.8 28 270.5 28.7 270.5 29.6V37.2H267.7V28.1C267.7 27 267.7 25.8 267.6 24.5H270.1L270.2 26.5H270.3C270.6 25.9 271.1 25.4 271.8 25C272.6 24.5 273.4 24.3 274.4 24.3C275.6 24.3 276.6 24.7 277.4 25.5C278.4 26.4 278.9 27.9 278.9 29.7V37.2H278.7Z" fill="white"/>
<path d="M297.7 26.6H294.6V32.8C294.6 34.4 295.2 35.2 296.3 35.2C296.8 35.2 297.2 35.2 297.6 35.1L297.7 37.2C297.1 37.4 296.4 37.5 295.5 37.5C294.4 37.5 293.5 37.2 292.9 36.5C292.3 35.8 292 34.7 292 33.1V26.7H290V24.6H291.9V22.3L294.7 21.5V24.7H297.8L297.7 26.6Z" fill="white"/>
<path d="M312.7 37.2H309.9V30C309.9 27.7 309 26.6 307.3 26.6C306 26.6 305.1 27.3 304.6 28.6C304.5 28.9 304.5 29.2 304.5 29.6V37.3H301.7V18.7H304.5V26.4H304.6C305.5 25 306.8 24.3 308.4 24.3C309.6 24.3 310.5 24.7 311.3 25.5C312.3 26.5 312.7 27.9 312.7 29.8V37.2V37.2Z" fill="white"/>
<path d="M328.2 30.3C328.2 30.8 328.2 31.2 328.1 31.6H319.6C319.6 32.9 320 33.8 320.8 34.5C321.5 35.1 322.4 35.4 323.6 35.4C324.9 35.4 326 35.2 327 34.8L327.4 36.8C326.2 37.3 324.8 37.6 323.1 37.6C321.1 37.6 319.6 37 318.4 35.9C317.3 34.7 316.7 33.2 316.7 31.2C316.7 29.3 317.2 27.7 318.3 26.4C319.4 25 320.9 24.4 322.8 24.4C324.6 24.4 326 25.1 327 26.4C327.8 27.3 328.2 28.7 328.2 30.3ZM325.5 29.5C325.5 28.7 325.3 27.9 325 27.3C324.5 26.5 323.8 26.1 322.7 26.1C321.8 26.1 321 26.5 320.4 27.3C319.9 27.9 319.7 28.6 319.6 29.5H325.5Z" fill="white"/>
</svg>
