<svg width="366" height="110" viewBox="0 0 366 110" fill="none" xmlns="http://www.w3.org/2000/svg">
<path d="M351.943 109.1H13.9802C6.5451 109.1 0.46167 103.014 0.46167 95.5751V14.4251C0.46167 6.98626 6.54497 0.900024 13.9802 0.900024H351.943C359.378 0.900024 365.462 6.98626 365.462 14.4251V95.575C365.462 103.014 359.378 109.1 351.943 109.1" fill="black"/>
<path d="M351.943 0.900024H13.9802C6.5451 0.900024 0.46167 6.98626 0.46167 14.4251V95.575C0.46167 103.014 6.54497 109.1 13.9802 109.1H351.943C359.378 109.1 365.462 103.014 365.462 95.5751V14.4251C365.462 6.98626 359.378 0.900024 351.943 0.900024H351.943ZM351.943 3.06396C358.205 3.06396 363.299 8.16135 363.299 14.4251V95.575C363.299 101.84 358.205 106.937 351.943 106.937H13.9802C7.71957 106.937 2.62466 101.84 2.62466 95.5751V14.4251C2.62466 8.16135 7.71945 3.06408 13.9802 3.06408H351.943" fill="#A6A6A6"/>
<path d="M128.667 28.6085C128.667 30.8747 127.996 32.6794 126.653 34.0257C125.127 35.6265 123.138 36.4275 120.693 36.4275C118.351 36.4275 116.361 35.6161 114.724 33.9908C113.084 32.3668 112.265 30.3529 112.265 27.95C112.265 25.5461 113.084 23.5334 114.724 21.908C116.361 20.2841 118.351 19.4714 120.693 19.4714C121.855 19.4714 122.967 19.6988 124.023 20.1521C125.079 20.6065 125.926 21.2098 126.56 21.9652L125.134 23.3926C124.06 22.1089 122.581 21.4675 120.693 21.4675C118.985 21.4675 117.509 22.0678 116.263 23.2691C115.016 24.4717 114.393 26.0312 114.393 27.95C114.393 29.869 115.016 31.4284 116.263 32.6311C117.509 33.8324 118.985 34.4326 120.693 34.4326C122.504 34.4326 124.015 33.8291 125.224 32.6205C126.009 31.8331 126.463 30.7386 126.584 29.3331H120.693V27.3836H128.554C128.63 27.8076 128.667 28.2143 128.667 28.6085" fill="white"/>
<path d="M128.667 28.6084H128.397C128.394 30.8231 127.748 32.5432 126.462 33.8345L126.459 33.8366L126.457 33.8388C124.98 35.3845 123.081 36.1538 120.693 36.157C118.414 36.1538 116.506 35.3761 114.914 33.7996C113.324 32.2199 112.539 30.2914 112.536 27.95C112.539 25.6075 113.324 23.6801 114.914 22.1016C116.506 20.524 118.414 19.7452 120.693 19.7419C121.82 19.7419 122.893 19.962 123.916 20.4003C124.941 20.8421 125.75 21.421 126.353 22.1397L126.56 21.9652L126.369 21.7739L124.943 23.2024L125.134 23.3926L125.342 23.2195C124.218 21.8722 122.641 21.193 120.693 21.197C118.922 21.1948 117.364 21.8279 116.075 23.0749C114.774 24.3258 114.121 25.9731 114.123 27.95C114.121 29.9271 114.774 31.5742 116.075 32.8253C117.364 34.0722 118.922 34.7053 120.693 34.7031C122.564 34.7064 124.159 34.0712 125.415 32.8117C126.254 31.9704 126.729 30.8052 126.854 29.3563L126.879 29.0626H120.963V27.6541H128.554V27.3836L128.288 27.4312C128.362 27.8413 128.397 28.2311 128.397 28.6084H128.937C128.937 28.1973 128.899 27.7747 128.82 27.3352L128.78 27.1131H120.423V29.6036H126.584V29.3331L126.315 29.3099C126.196 30.671 125.762 31.6959 125.033 32.4294C123.871 33.5873 122.445 34.1588 120.693 34.1621C119.049 34.1599 117.654 33.5935 116.451 32.4365C115.259 31.2837 114.667 29.8119 114.664 27.95C114.667 26.0882 115.259 24.6164 116.451 23.4635C117.654 22.3065 119.049 21.7401 120.693 21.738C122.521 21.7423 123.902 22.3467 124.927 23.5671L125.117 23.7932L126.751 22.1565L126.926 21.9812L126.767 21.7918C126.103 20.9995 125.218 20.3707 124.13 19.9038C123.04 19.4356 121.89 19.2009 120.693 19.2009C118.289 19.1989 116.215 20.0441 114.533 21.7169C112.844 23.3864 111.993 25.485 111.995 27.95C111.993 30.414 112.844 32.5137 114.534 34.1842C116.215 35.8559 118.289 36.7002 120.693 36.698C123.196 36.7002 125.273 35.8684 126.848 34.2127L126.653 34.0257L126.844 34.217C128.244 32.8169 128.939 30.9256 128.937 28.6084H128.667H128.667ZM141.129 21.8289H133.742V26.9749H140.404V28.9251H133.742V34.0712H141.129V36.065H131.659V19.835H141.129V21.8289" fill="white"/>
<path d="M141.129 21.8289V21.5584H133.471V27.2454H140.133V28.6539L133.471 28.6546V34.3416H140.859V35.7945H131.929V20.1055H140.859V21.8289H141.129V21.5584V21.8289H141.4V19.5645H131.389V36.3355H141.4V33.8007H134.012V29.1956H140.674V26.7044H134.012V22.0994H141.4V21.8289H141.129V21.8289ZM149.919 36.0651H147.834V21.8288H143.303V19.8349H154.45V21.8288H149.919V36.0649" fill="white"/>
<path d="M149.919 36.0651V35.7945H148.104V21.5584H143.573V20.1056H154.18V21.5584H149.649V36.065H149.919V35.7945V36.065H150.19V22.0994H154.721V19.5645H143.032V22.0993H147.563V36.3354H150.19V36.0649H149.919V36.0651ZM162.516 36.0651V19.8349H164.6V36.0649H162.516" fill="white"/>
<path d="M162.516 36.0651H162.786V20.1055H164.329V35.7945H162.516V36.065H162.786H162.516V36.3355H164.87V19.5645H162.246V36.3355H162.516V36.065V36.0651ZM173.846 36.0651H171.76V21.8288H167.23V19.8349H178.377V21.8288H173.846V36.0649" fill="white"/>
<path d="M173.846 36.0651V35.7945H172.031V21.5584H167.5V20.1057H178.107V21.5584H173.576V36.065H173.846V35.7945V36.065H174.117V22.0994H178.647V19.5646H166.959V22.0993H171.49V36.3354H174.117V36.0649H173.846V36.0651ZM189.124 32.6089C190.325 33.825 191.794 34.4325 193.532 34.4325C195.269 34.4325 196.739 33.825 197.938 32.6089C199.14 31.3928 199.742 29.8381 199.742 27.95C199.742 26.0621 199.14 24.5074 197.938 23.2913C196.739 22.0751 195.269 21.4675 193.532 21.4675C191.794 21.4675 190.325 22.0751 189.124 23.2913C187.926 24.5074 187.324 26.0619 187.324 27.95C187.324 29.8381 187.926 31.3928 189.124 32.6089ZM199.48 33.9676C197.885 35.6084 195.902 36.4275 193.532 36.4275C191.159 36.4275 189.177 35.6084 187.586 33.9676C185.99 32.3286 185.196 30.3223 185.196 27.95C185.196 25.5777 185.99 23.5711 187.586 21.9325C189.177 20.2913 191.159 19.4714 193.532 19.4714C195.889 19.4714 197.867 20.2957 199.469 21.9431C201.069 23.5903 201.87 25.5926 201.87 27.95C201.87 30.3223 201.071 32.3286 199.48 33.9676Z" fill="white"/>
<path d="M189.124 32.6089L188.932 32.7991C190.177 34.0639 191.731 34.7064 193.532 34.7031C195.331 34.7064 196.887 34.0639 198.13 32.7991C199.384 31.533 200.014 29.8953 200.012 27.95C200.014 26.0049 199.384 24.367 198.13 23.101C196.887 21.8362 195.331 21.1938 193.532 21.197C191.731 21.1938 190.177 21.8362 188.932 23.101C187.682 24.367 187.05 26.0049 187.053 27.95C187.05 29.8951 187.682 31.533 188.932 32.7991L189.124 32.6089L189.317 32.4187C188.17 31.251 187.596 29.7822 187.594 27.95C187.596 26.118 188.17 24.6492 189.317 23.4814C190.474 22.314 191.856 21.7412 193.532 21.7381C195.205 21.7412 196.591 22.314 197.746 23.4814C198.895 24.6492 199.468 26.118 199.47 27.95C199.468 29.7821 198.895 31.251 197.746 32.4187C196.591 33.5862 195.206 34.1588 193.532 34.162C191.856 34.1588 190.474 33.5862 189.317 32.4187L189.124 32.6089ZM199.48 33.9676L199.286 33.7796C197.736 35.3688 195.84 36.1539 193.532 36.157C191.222 36.1538 189.326 35.3688 187.779 33.7796L187.771 33.7711L187.779 33.7796C186.232 32.185 185.468 30.262 185.466 27.95C185.468 25.638 186.232 23.715 187.779 22.1205C189.326 20.5313 191.222 19.7452 193.532 19.742C195.825 19.7452 197.717 20.5345 199.276 22.1321C200.828 23.734 201.596 25.654 201.599 27.95C201.596 30.262 200.831 32.185 199.286 33.7796L199.48 33.9676L199.674 34.1555C201.313 32.4714 202.142 30.3824 202.14 27.95C202.142 25.5315 201.31 23.4467 199.663 21.7551C198.016 20.0568 195.952 19.198 193.532 19.2009C191.098 19.198 189.028 20.0528 187.391 21.7445V21.7433C185.749 23.4286 184.923 25.5177 184.925 27.95C184.923 30.3824 185.749 32.4714 187.391 34.1566L187.399 34.1643L187.391 34.1555C189.028 35.8473 191.098 36.7002 193.532 36.698C195.964 36.7002 198.034 35.8473 199.674 34.1555L199.48 33.9676V33.9676ZM204.795 36.0651V19.8349H207.332L215.216 32.4607H215.306L215.216 29.333V19.8349H217.302V36.0649H215.126L206.878 22.8272H206.788L206.878 25.956V36.0649H204.795" fill="white"/>
<path d="M204.795 36.0651H205.066V20.1055H207.182L215.066 32.7313H215.584L215.486 29.3291V20.1056H217.032V35.7945H215.276L207.028 22.5568H206.51L206.607 25.9605V35.7945H204.795V36.065H205.066H204.795V36.3355H207.148V25.9519L207.059 22.82L206.788 22.8273V23.0978H206.878V22.8273L206.649 22.9712L214.976 36.3355H217.572V19.5645H214.946V29.3363L215.035 32.4681L215.306 32.4609V32.1904H215.216V32.4609L215.445 32.3173L207.482 19.5645H204.525V36.3355H204.795V36.065L204.795 36.0651ZM289.585 82.05H294.63V48.2343H289.585L289.585 82.05ZM335.026 60.4156L329.243 75.0763H329.07L323.068 60.4154H317.633L326.634 80.9067L321.502 92.3048H326.766L340.636 60.4154L335.026 60.4156ZM306.416 78.2093C304.761 78.2093 302.457 77.3829 302.457 75.3373C302.457 72.7273 305.329 71.7267 307.805 71.7267C310.025 71.7267 311.066 72.2052 312.415 72.8585C312.023 75.9903 309.327 78.2093 306.416 78.2093V78.2093ZM307.024 59.6757C303.371 59.6757 299.589 61.2859 298.023 64.8533L302.501 66.7236C303.458 64.8533 305.239 64.2435 307.11 64.2435C309.72 64.2435 312.372 65.8106 312.415 68.5949V68.9426C311.501 68.4204 309.546 67.6375 307.154 67.6375C302.328 67.6375 297.412 70.2906 297.412 75.2505C297.412 79.7752 301.371 82.6903 305.805 82.6903C309.198 82.6903 311.066 81.1677 312.242 79.3843H312.415V81.9941H317.284V69.029C317.284 63.0264 312.807 59.6757 307.024 59.6757V59.6757ZM275.845 64.5319H268.669V52.9408H275.845C279.617 52.9408 281.758 56.0651 281.758 58.7362C281.758 61.3568 279.616 64.5319 275.845 64.5319ZM275.715 48.2343H263.627V82.05H268.669V69.2383H275.715C281.306 69.2383 286.803 65.1881 286.803 58.7362C286.803 52.2845 281.306 48.2343 275.715 48.2343V48.2343ZM209.796 78.2155C206.311 78.2155 203.393 75.296 203.393 71.286C203.393 67.234 206.311 64.27 209.796 64.27C213.237 64.27 215.937 67.2339 215.937 71.286C215.937 75.296 213.237 78.2155 209.796 78.2155H209.796ZM215.589 62.309H215.415C214.282 60.9584 212.104 59.7382 209.36 59.7382C203.61 59.7382 198.34 64.793 198.34 71.286C198.34 77.7359 203.61 82.7475 209.36 82.7475C212.104 82.7475 214.282 81.5269 215.415 80.1332H215.589V81.789C215.589 86.1912 213.237 88.5443 209.448 88.5443C206.355 88.5443 204.438 86.321 203.653 84.4475L199.255 86.2777C200.518 89.3281 203.872 93.0762 209.448 93.0762C215.371 93.0762 220.381 89.5891 220.381 81.0917V60.4355H215.589V62.309ZM223.865 82.05H228.917V48.2331H223.865V82.05ZM236.366 70.8941C236.235 66.4487 239.807 64.1832 242.377 64.1832C244.382 64.1832 246.08 65.185 246.645 66.6244L236.366 70.8941ZM252.047 67.0594C251.09 64.4875 248.17 59.7382 242.202 59.7382C236.279 59.7382 231.357 64.401 231.357 71.2428C231.357 77.6926 236.235 82.7475 242.768 82.7475C248.04 82.7475 251.09 79.5225 252.352 77.649L248.432 75.0338C247.126 76.9517 245.339 78.2155 242.768 78.2155C240.199 78.2155 238.37 77.0385 237.193 74.7295L252.569 68.3666L252.047 67.0594ZM129.547 63.2682V68.1488H141.22C140.872 70.8941 139.957 72.8985 138.563 74.2932C136.865 75.9933 134.207 77.8668 129.547 77.8668C122.359 77.8668 116.741 72.071 116.741 64.8806C116.741 57.6902 122.36 51.8937 129.547 51.8937C133.424 51.8937 136.254 53.4193 138.345 55.3803L141.786 51.9379C138.868 49.1483 134.991 47.0131 129.547 47.0131C119.702 47.0131 111.427 55.0318 111.427 64.8806C111.427 74.7295 119.702 82.7475 129.547 82.7475C134.861 82.7475 138.868 81.0051 142.004 77.7359C145.227 74.5109 146.229 69.9791 146.229 66.3188C146.229 65.185 146.143 64.14 145.967 63.2682H129.547ZM159.501 78.2155C156.016 78.2155 153.01 75.3392 153.01 71.2428C153.01 67.1027 156.016 64.27 159.501 64.27C162.985 64.27 165.991 67.1027 165.991 71.2428C165.991 75.3393 162.985 78.2155 159.501 78.2155ZM159.501 59.7382C153.141 59.7382 147.957 64.5752 147.957 71.2428C147.957 77.8668 153.141 82.7475 159.501 82.7475C165.86 82.7475 171.043 77.8668 171.043 71.2428C171.043 64.5752 165.86 59.7382 159.501 59.7382ZM184.681 78.2155C181.197 78.2155 178.191 75.3392 178.191 71.2428C178.191 67.1027 181.197 64.27 184.681 64.27C188.165 64.27 191.171 67.1027 191.171 71.2428C191.171 75.3393 188.165 78.2155 184.681 78.2155H184.681ZM184.681 59.7382C178.321 59.7382 173.139 64.5752 173.139 71.2428C173.139 77.8668 178.321 82.7475 184.681 82.7475C191.04 82.7475 196.224 77.8668 196.224 71.2428C196.224 64.5752 191.04 59.7382 184.681 59.7382H184.681Z" fill="white"/>
<path d="M28.8739 21.4886C27.9665 22.3076 27.4249 23.6737 27.4249 25.487V25.0771V84.9147V84.5206C27.4249 86.1952 27.8895 87.4884 28.6762 88.3213L28.877 88.5136V88.5145C29.5138 89.0894 30.3303 89.3946 31.2661 89.3937C32.1805 89.3937 33.2093 89.102 34.2951 88.4861L73.5399 66.1772L87.0202 58.5134C88.7323 57.5403 89.6934 56.285 89.854 55.0064V55.0011C89.6934 53.7195 88.7323 52.4652 87.0203 51.492L73.5388 43.8292L34.2952 21.5202C33.2071 20.9033 32.1776 20.6105 31.2608 20.6105C30.3261 20.6105 29.5106 20.9148 28.8741 21.4886H28.8739Z" fill="#00C1FF"/>
<path d="M28.8771 88.5136L28.6762 88.3213C27.8895 87.4885 27.4249 86.1952 27.4249 84.5205V84.9147V25.0919V25.487C27.4249 23.6737 27.9665 22.3076 28.8739 21.4886L62.3723 55.0022L28.8771 88.5136Z" fill="url(#paint0_linear)"/>
<path d="M73.5398 66.1771L62.3722 55.0022L73.5389 43.8291L87.0203 51.4919C88.7322 52.4652 89.6933 53.7194 89.854 55.0011V55.0062C89.6933 56.2849 88.7322 57.5403 87.0203 58.5132L73.5399 66.177" fill="url(#paint1_linear)"/>
<path d="M31.2661 89.3936C30.3304 89.3945 29.5138 89.0891 28.8772 88.5143V88.5135L62.3723 55.0021L73.5399 66.177L34.295 88.486C33.2093 89.102 32.1805 89.3936 31.2661 89.3936Z" fill="url(#paint2_linear)"/>
<path d="M62.3722 55.0023L28.8737 21.4887C29.5104 20.9149 30.3259 20.6106 31.2605 20.6106C32.1773 20.6106 33.2069 20.9033 34.2949 21.5203L73.5387 43.8293L62.3721 55.0023" fill="url(#paint3_linear)"/>
<path d="M31.2672 89.7899C30.3315 89.7899 29.5139 89.4845 28.8771 88.9097L28.876 88.9107C28.8734 88.908 28.8706 88.9056 28.8676 88.9034L28.6934 88.7332C28.688 88.7278 28.6828 88.7216 28.6764 88.7154L28.8772 88.5145C29.514 89.0893 30.3304 89.3946 31.2663 89.3935C32.1806 89.3935 33.2094 89.102 34.2951 88.486L73.54 66.1771L73.7914 66.4288L73.5368 66.5734L34.295 88.8811C33.3055 89.4423 32.3644 89.7349 31.5142 89.7837C31.432 89.7877 31.3496 89.7897 31.2672 89.7897" fill="url(#paint4_linear)"/>
<path d="M28.6762 88.7154C27.8895 87.8827 27.4249 86.5904 27.4249 84.9147V84.5206C27.4249 86.1952 27.8895 87.4884 28.6762 88.3213L28.877 88.5136L28.6762 88.7154" fill="url(#paint5_linear)"/>
<path d="M73.7912 66.4286L73.5398 66.177L87.0201 58.5132C88.7322 57.5403 89.6933 56.2849 89.854 55.0062C89.854 55.4755 89.7493 55.9446 89.5414 56.4012C89.122 57.3215 88.2815 58.1911 87.0202 58.9085L73.7912 66.4287" fill="url(#paint6_linear)"/>
<path d="M89.854 55.0012C89.6933 53.7195 88.7322 52.4653 87.0202 51.492L73.5387 43.8293L73.7901 43.5776H73.7912L87.0202 51.0979C88.9077 52.1715 89.8529 53.5862 89.854 55.0012" fill="url(#paint7_linear)"/>
<path d="M27.4249 25.487V25.0737C27.4249 24.9247 27.4289 24.7789 27.4366 24.6374V24.6309C27.4366 24.629 27.4366 24.6269 27.4373 24.6247V24.6088C27.5188 23.1664 27.9665 22.0413 28.6762 21.29L28.8739 21.4885C27.9665 22.3076 27.4249 23.6737 27.4249 25.487Z" fill="url(#paint8_linear)"/>
<path d="M73.5387 43.8293L34.295 21.5201C33.2071 20.9032 32.1776 20.6105 31.2607 20.6105C30.326 20.6105 29.5106 20.9148 28.8739 21.4886L28.6763 21.29C28.738 21.2246 28.8021 21.1616 28.8686 21.1009C28.8706 21.0988 28.8739 21.0966 28.876 21.0945C29.5077 20.5251 30.3145 20.2208 31.2408 20.2153H31.2607C32.1776 20.2153 33.2071 20.5081 34.295 21.1253L73.7913 43.5768L73.7902 43.5776L73.5387 43.8293" fill="url(#paint9_linear)"/>
<defs>
<linearGradient id="paint0_linear" x1="48.8324" y1="24.4597" x2="19.9972" y2="53.3741" gradientUnits="userSpaceOnUse">
<stop stop-color="#00A0FF"/>
<stop offset="0.00657" stop-color="#00A1FF"/>
<stop offset="0.2601" stop-color="#00BEFF"/>
<stop offset="0.5122" stop-color="#00D2FF"/>
<stop offset="0.7604" stop-color="#00DFFF"/>
<stop offset="1" stop-color="#00E3FF"/>
</linearGradient>
<linearGradient id="paint1_linear" x1="91.9399" y1="54.8091" x2="26.5183" y2="54.8091" gradientUnits="userSpaceOnUse">
<stop stop-color="#FFE000"/>
<stop offset="0.4087" stop-color="#FFBD00"/>
<stop offset="0.7754" stop-color="#FFA500"/>
<stop offset="1" stop-color="#FF9C00"/>
</linearGradient>
<linearGradient id="paint2_linear" x1="67.6109" y1="65.6267" x2="18.747" y2="114.267" gradientUnits="userSpaceOnUse">
<stop stop-color="#FF3A44"/>
<stop offset="1" stop-color="#C31162"/>
</linearGradient>
<linearGradient id="paint3_linear" x1="20.2402" y1="16.5202" x2="42.0177" y2="38.2314" gradientUnits="userSpaceOnUse">
<stop stop-color="#32A071"/>
<stop offset="0.0685" stop-color="#2DA771"/>
<stop offset="0.4762" stop-color="#15CF74"/>
<stop offset="0.8009" stop-color="#06E775"/>
<stop offset="1" stop-color="#00F076"/>
</linearGradient>
<linearGradient id="paint4_linear" x1="67.5866" y1="73.3784" x2="28.4543" y2="112.619" gradientUnits="userSpaceOnUse">
<stop stop-color="#CC2E36"/>
<stop offset="1" stop-color="#9C0E4E"/>
</linearGradient>
<linearGradient id="paint5_linear" x1="31.8874" y1="24.4596" x2="6.48397" y2="49.9333" gradientUnits="userSpaceOnUse">
<stop stop-color="#008DE0"/>
<stop offset="0.00657" stop-color="#008DE0"/>
<stop offset="0.2601" stop-color="#00A7E0"/>
<stop offset="0.5122" stop-color="#00B8E0"/>
<stop offset="0.7604" stop-color="#00C4E0"/>
<stop offset="1" stop-color="#00C7E0"/>
</linearGradient>
<linearGradient id="paint6_linear" x1="91.9399" y1="55.0037" x2="26.5182" y2="55.0037" gradientUnits="userSpaceOnUse">
<stop stop-color="#E0C500"/>
<stop offset="0.4087" stop-color="#E0A600"/>
<stop offset="0.7754" stop-color="#E09100"/>
<stop offset="1" stop-color="#E08900"/>
</linearGradient>
<linearGradient id="paint7_linear" x1="91.9399" y1="55.0039" x2="26.5184" y2="55.0039" gradientUnits="userSpaceOnUse">
<stop stop-color="#FFE840"/>
<stop offset="0.4087" stop-color="#FFCE40"/>
<stop offset="0.7754" stop-color="#FFBC40"/>
<stop offset="1" stop-color="#FFB540"/>
</linearGradient>
<linearGradient id="paint8_linear" x1="31.8598" y1="24.5056" x2="7.39058" y2="47.9793" gradientUnits="userSpaceOnUse">
<stop stop-color="#40B8FF"/>
<stop offset="0.00657" stop-color="#40B9FF"/>
<stop offset="0.2601" stop-color="#40CEFF"/>
<stop offset="0.5122" stop-color="#40DDFF"/>
<stop offset="0.7604" stop-color="#40E7FF"/>
<stop offset="1" stop-color="#40EAFF"/>
</linearGradient>
<linearGradient id="paint9_linear" x1="20.1915" y1="23.6076" x2="37.6658" y2="41.1302" gradientUnits="userSpaceOnUse">
<stop stop-color="#65B895"/>
<stop offset="0.0685" stop-color="#62BD95"/>
<stop offset="0.4762" stop-color="#50DB97"/>
<stop offset="0.8009" stop-color="#44ED98"/>
<stop offset="1" stop-color="#40F498"/>
</linearGradient>
</defs>
</svg>
